<?xml version="1.0" encoding="utf-8"?>
<!-- Generator: Adobe Illustrator 19.1.0, SVG Export Plug-In . SVG Version: 6.00 Build 0)  -->
<svg version="1.1" id="Layer_1" xmlns="http://www.w3.org/2000/svg" xmlns:xlink="http://www.w3.org/1999/xlink" x="0px" y="0px"
	 viewBox="0 0 132 132" height="28px" style="enable-background:new 0 0 132 132;" xml:space="preserve">
<style type="text/css">
	.st0{fill:#1366A5;}
	.st0:hover{fill:black;}
</style>
<g>
	<path class="st0" d="M96,66c0.8,0.9,1.5,1.7,2.3,2.5c9.8,9.8,19.4,19.7,29.4,29.3c5.5,5.3,5.2,12.6,0,17.2
		c-4.6,4.2-8.9,8.8-13.3,13.2c-5.1,5.1-10.9,5-16-0.1c-10-9.9-19.9-19.9-29.9-29.9c-0.7-0.7-1.2-1.6-2-2.6c-1.2,1.1-2.1,1.7-2.8,2.5
		c-9.8,9.8-19.6,19.6-29.3,29.3c-6.1,6.1-11.6,6.1-17.7-0.1c-4.1-4.1-8.3-8.2-12.4-12.4c-5.8-5.8-5.8-11.4-0.1-17.1
		c10-10,19.9-19.9,29.9-29.8c1.6-1.6,1.7-2.5,0-4.2C24.1,53.9,14,43.8,4,33.7c-5.2-5.2-5.3-11-0.1-16.2C8.4,12.9,13,8.3,17.6,3.7
		c5.1-5,10.9-5,16,0.1c10.1,10,20.2,20.1,30.2,30.3c1.7,1.7,2.7,1.7,4.3,0c9.9-10,19.9-20,29.8-29.9c5.6-5.6,11.2-5.6,16.7-0.1
		c4.4,4.4,8.9,8.8,13.3,13.3c5.3,5.3,5.3,11.1,0,16.5c-9.9,9.9-19.8,19.8-29.7,29.7C97.6,64.3,96.9,65.1,96,66z"/>
</g>
</svg>
