<svg id="Layer_1" data-name="Layer 1" xmlns="http://www.w3.org/2000/svg" viewBox="0 0 272.75 40">
  <defs>
    <style>
      .cls-1 {
        fill: #354149;
      }

      .cls-2 {
        fill: #1366a5;
      }
    </style>
  </defs>
  <title>logo-mobile</title>
  <g>
    <path class="cls-1" d="M53.25,13.45v16H50v-16h-5.9v-2.9h15.1v2.9h-6Z"/>
    <path class="cls-1" d="M73.15,23.75h-5.4v5.7h-3.1V10.65h7.6c4.8,0,7.6,2.3,7.6,6.4a6.08,6.08,0,0,1-3.9,6.1l4.2,6.3h-3.6ZM72.25,21c2.9,0,4.6-1.2,4.6-3.8s-1.7-3.7-4.6-3.7h-4.5V21h4.5Z"/>
    <path class="cls-1" d="M95,10.65l7.5,18.8h-3.4l-5.8-15.3-5.9,15.3h-3.3l7.6-18.8H95Z"/>
    <path class="cls-1" d="M121,29.45L111,16v13.5h-3.2V10.65h3.1L121,24.15V10.65h3.1v18.8H121Z"/>
    <path class="cls-1" d="M144.65,12.45l-1.3,2.8a11.71,11.71,0,0,0-5.5-1.8c-1.9,0-3.1.7-3.1,2,0,4.1,10.2,1.9,10.2,8.7,0,3.4-3,5.4-7.1,5.4a11.34,11.34,0,0,1-7.7-3l1.4-2.7a9.76,9.76,0,0,0,6.4,2.7c2.2,0,3.5-.8,3.5-2.3,0-4.2-10.2-1.9-10.2-8.6,0-3.2,2.8-5.3,6.9-5.3A14.27,14.27,0,0,1,144.65,12.45Z"/>
    <path class="cls-1" d="M158.75,10.65c4.7,0,7.5,2.3,7.5,6.4,0,4.3-2.7,6.7-7.5,6.7h-4.3v5.7h-3.2V10.65h7.5ZM154.45,21h4.2c2.9,0,4.6-1.2,4.6-3.8s-1.6-3.7-4.6-3.7h-4.2V21Z"/>
    <path class="cls-1" d="M180.65,10.65l7.5,18.8h-3.5l-5.8-15.3L173,29.45h-3.3l7.6-18.8h3.4Z"/>
    <path class="cls-1" d="M201.85,23.75h-5.4v5.7h-3.2V10.65h7.6c4.8,0,7.6,2.3,7.6,6.4a6.08,6.08,0,0,1-3.9,6.1l4.2,6.3h-3.6ZM201,21c2.9,0,4.6-1.2,4.6-3.8s-1.7-3.7-4.6-3.7h-4.5V21H201Z"/>
    <path class="cls-1" d="M218.75,13.45v5.1h9.2v2.9h-9.2v5.2h10.6v2.9h-13.8V10.65H229v2.9h-10.3v-0.1Z"/>
    <path class="cls-1" d="M249.15,29.45l-10-13.5v13.5h-3.2V10.65H239l10.1,13.5V10.65h3.1v18.8h-3.1Z"/>
    <path class="cls-1" d="M266.75,13.45v16h-3.1v-16h-6v-2.9h15.1v2.9h-6Z"/>
  </g>
  <g>
    <path class="cls-2" d="M16.25,34.35L9,27.15a10,10,0,0,1,0-14.3l7.2-7.2a10.3,10.3,0,0,1,13-1.2l-1-1a11.59,11.59,0,0,0-16.5,0l-8.3,8.3a11.59,11.59,0,0,0,0,16.5l8.3,8.3a11.59,11.59,0,0,0,16.5,0l1-1A10.18,10.18,0,0,1,16.25,34.35Z"/>
    <path class="cls-2" d="M35.25,14.25l-5.8-5.8a8.09,8.09,0,0,0-11.5,0l-0.5.6a7,7,0,0,1,8.9,1l5,5a7.12,7.12,0,0,1,0,10.1l-5,5a7.26,7.26,0,0,1-8.9,1l0.5,0.5a8.09,8.09,0,0,0,11.5,0l5.8-5.8A8.21,8.21,0,0,0,35.25,14.25Z"/>
  </g>
</svg>
