<?xml version="1.0" encoding="utf-8"?>
<!-- Generator: Adobe Illustrator 19.1.0, SVG Export Plug-In . SVG Version: 6.00 Build 0)  -->
<svg version="1.1" id="Layer_1" xmlns="http://www.w3.org/2000/svg" height="40px" xmlns:xlink="http://www.w3.org/1999/xlink" x="0px" y="0px"
	 viewBox="0 0 857.4 125.7" enable-background="new 0 0 857.4 125.7" xml:space="preserve">
<g>
	<path fill="#FFFFFF" d="M167.2,45.2v50.3h-10V45.2h-18.7v-9H186v9H167.2z"/>
	<path fill="#FFFFFF" d="M229.7,77.6c-0.8,0.1-1.8,0.1-2.7,0.1H213v17.9h-10V36.3h24c15.2,0,23.9,7.4,23.9,20.2
		c0,9.5-4.4,16.2-12.3,19.2l13.3,19.8h-11.3L229.7,77.6z M227,68.7c9.1,0,14.4-3.9,14.4-11.9c0-7.8-5.2-11.5-14.4-11.5H213v23.4H227
		z"/>
	<path fill="#FFFFFF" d="M298.7,36.3l23.6,59.3h-10.8l-18.3-48.2l-18.5,48.2h-10.4l24-59.3H298.7z"/>
	<path fill="#FFFFFF" d="M380.4,95.5L348.8,53v42.5h-10V36.3h9.8l31.7,42.6V36.3h9.8v59.3H380.4z"/>
	<path fill="#FFFFFF" d="M454.6,41.9l-4.1,8.8c-6.4-3.9-12.9-5.5-17.4-5.5c-5.8,0-9.7,2.2-9.7,6.2c0,12.9,32,6,31.9,27.3
		c0,10.6-9.3,17.1-22.3,17.1c-9.3,0-18.1-3.8-24.2-9.4l4.3-8.6c6.1,5.6,13.7,8.6,20.1,8.6c6.9,0,11.1-2.6,11.1-7.2
		c0-13.2-32-5.8-32-26.9c0-10.2,8.7-16.5,21.6-16.5C441.5,35.8,449.1,38.3,454.6,41.9z"/>
	<path fill="#FFFFFF" d="M499.1,36.3c14.9,0,23.4,7.4,23.4,20.2c0,13.4-8.5,21.2-23.4,21.2h-13.6v17.9h-10V36.3H499.1z M485.5,68.7
		h13.2c9.1,0,14.3-3.9,14.3-11.9c0-7.8-5.2-11.5-14.3-11.5h-13.2V68.7z"/>
	<path fill="#FFFFFF" d="M567.7,36.3l23.6,59.3h-10.8l-18.3-48.2l-18.5,48.2h-10.4l24-59.3H567.7z"/>
	<path fill="#FFFFFF" d="M634.5,77.6c-0.8,0.1-1.8,0.1-2.7,0.1h-14.1v17.9h-10V36.3h24c15.2,0,23.9,7.4,23.9,20.2
		c0,9.5-4.4,16.2-12.3,19.2l13.3,19.8h-11.3L634.5,77.6z M631.8,68.7c9.1,0,14.4-3.9,14.4-11.9c0-7.8-5.2-11.5-14.4-11.5h-14.1v23.4
		H631.8z"/>
	<path fill="#FFFFFF" d="M687.4,45.2v16h29v9h-29v16.3h33.3v9h-43.3V36.3h42.3v9H687.4z"/>
	<path fill="#FFFFFF" d="M783,95.5L751.4,53v42.5h-10V36.3h9.8L783,78.8V36.3h9.8v59.3H783z"/>
	<path fill="#FFFFFF" d="M838.6,45.2v50.3h-10V45.2h-18.7v-9h47.5v9H838.6z"/>
</g>
<path fill="#FFFFFF" d="M51.4,108L28.8,85.4c-12.5-12.5-12.5-32.7,0-45.1l22.6-22.6C62.5,6.6,79.7,5.4,92.2,14.1l-3.3-3.3
	c-14.4-14.4-37.7-14.4-52.1,0l-26,26c-14.4,14.4-14.4,37.7,0,52.1l26,26c14.4,14.4,37.7,14.4,52.1,0l3.3-3.3
	C79.7,120.3,62.5,119.1,51.4,108z"/>
<path fill="#FFFFFF" d="M111.3,44.7L93.2,26.6c-10-10-26.3-10-36.3,0l-1.5,1.5c8.7-5.6,20.4-4.6,28,3L99.2,47c8.8,8.8,8.8,23,0,31.7
	L83.4,94.6c-7.6,7.6-19.3,8.6-28,3l1.5,1.5c10,10,26.3,10,36.3,0L111.3,81C121.3,71,121.3,54.7,111.3,44.7z"/>
</svg>
