<?xml version="1.0" encoding="utf-8"?>
<!-- Generator: Adobe Illustrator 19.2.0, SVG Export Plug-In . SVG Version: 6.00 Build 0)  -->
<svg version="1.1" id="Layer_1" xmlns="http://www.w3.org/2000/svg" xmlns:xlink="http://www.w3.org/1999/xlink" x="0px" y="0px"
	 viewBox="0 0 857.4 40" style="enable-background:new 0 0 857.4 40;" xml:space="preserve">
<style type="text/css">
	.st0{fill:#354149;}
	.st1{fill:#1366A5;}
</style>
<g>
	<path class="st0" d="M345.6,13.4v16h-3.2v-16h-5.9v-2.9h15.1v2.9H345.6z"/>
	<path class="st0" d="M365.5,23.7c-0.3,0-0.6,0-0.9,0h-4.5v5.7H357V10.6h7.6c4.8,0,7.6,2.3,7.6,6.4c0,3-1.4,5.1-3.9,6.1l4.2,6.3
		h-3.6L365.5,23.7z M364.6,20.9c2.9,0,4.6-1.2,4.6-3.8c0-2.5-1.7-3.7-4.6-3.7h-4.5v7.5H364.6z"/>
	<path class="st0" d="M387.4,10.6l7.5,18.8h-3.4l-5.8-15.3l-5.9,15.3h-3.3l7.6-18.8H387.4z"/>
	<path class="st0" d="M413.4,29.4l-10-13.5v13.5h-3.2V10.6h3.1l10.1,13.5V10.6h3.1v18.8H413.4z"/>
	<path class="st0" d="M437,12.4l-1.3,2.8c-2-1.2-4.1-1.8-5.5-1.8c-1.9,0-3.1,0.7-3.1,2c0,4.1,10.2,1.9,10.2,8.7c0,3.4-3,5.4-7.1,5.4
		c-3,0-5.8-1.2-7.7-3l1.4-2.7c1.9,1.8,4.4,2.7,6.4,2.7c2.2,0,3.5-0.8,3.5-2.3c0-4.2-10.2-1.9-10.2-8.6c0-3.2,2.8-5.3,6.9-5.3
		C432.8,10.5,435.2,11.2,437,12.4z"/>
	<path class="st0" d="M451.1,10.6c4.7,0,7.5,2.3,7.5,6.4c0,4.3-2.7,6.7-7.5,6.7h-4.3v5.7h-3.2V10.6H451.1z M446.8,20.9h4.2
		c2.9,0,4.6-1.2,4.6-3.8c0-2.5-1.6-3.7-4.6-3.7h-4.2V20.9z"/>
	<path class="st0" d="M473,10.6l7.5,18.8H477l-5.8-15.3l-5.9,15.3H462l7.6-18.8H473z"/>
	<path class="st0" d="M494.2,23.7c-0.3,0-0.6,0-0.9,0h-4.5v5.7h-3.2V10.6h7.6c4.8,0,7.6,2.3,7.6,6.4c0,3-1.4,5.1-3.9,6.1l4.2,6.3
		h-3.6L494.2,23.7z M493.4,20.9c2.9,0,4.6-1.2,4.6-3.8c0-2.5-1.7-3.7-4.6-3.7h-4.5v7.5H493.4z"/>
	<path class="st0" d="M511.1,13.4v5.1h9.2v2.9h-9.2v5.2h10.6v2.9h-13.8V10.6h13.5v2.9H511.1z"/>
	<path class="st0" d="M541.5,29.4l-10-13.5v13.5h-3.2V10.6h3.1l10.1,13.5V10.6h3.1v18.8H541.5z"/>
	<path class="st0" d="M559.1,13.4v16H556v-16H550v-2.9h15.1v2.9H559.1z"/>
</g>
<g>
	<path class="st1" d="M308.6,34.3l-7.2-7.2c-4-4-4-10.4,0-14.3l7.2-7.2c3.5-3.5,9-3.9,13-1.2l-1-1c-4.6-4.6-12-4.6-16.5,0l-8.3,8.3
		c-4.6,4.6-4.6,12,0,16.5l8.3,8.3c4.6,4.6,12,4.6,16.5,0l1-1C317.6,38.2,312.1,37.9,308.6,34.3z"/>
	<path class="st1" d="M327.6,14.2l-5.8-5.8c-3.2-3.2-8.3-3.2-11.5,0L309.8,9c2.8-1.8,6.5-1.5,8.9,1l5,5c2.8,2.8,2.8,7.3,0,10.1l-5,5
		c-2.4,2.4-6.1,2.7-8.9,1l0.5,0.5c3.2,3.2,8.3,3.2,11.5,0l5.8-5.8C330.8,22.6,330.8,17.4,327.6,14.2z"/>
</g>
</svg>
